<svg width="294" height="124" viewBox="0 0 294 124" fill="none" xmlns="http://www.w3.org/2000/svg">
<path d="M104.949 105.149C101.23 105.474 97.7702 104.846 94.5694 103.262C91.3667 101.658 88.705 99.1392 86.5844 95.7057C84.4637 92.2721 83.1756 87.9519 82.7201 82.7452C82.2645 77.5384 82.8245 73.0458 84.3998 69.2675C85.9733 65.4679 88.2722 62.4935 91.2964 60.3444C94.34 58.1722 97.8382 56.9132 101.791 56.5674C105.064 56.2811 107.894 56.5688 110.283 57.4306C112.692 58.2905 114.682 59.4977 116.253 61.052C117.822 62.5851 119.017 64.2473 119.837 66.0386C120.656 67.8087 121.132 69.4588 121.266 70.9889L121.3 71.3714L111.672 72.2137L111.639 71.8312C111.524 70.5135 111.093 69.2663 110.348 68.0895C109.602 66.9126 108.568 65.9859 107.246 65.3093C105.921 64.6114 104.335 64.3433 102.486 64.5051C100.615 64.6687 98.866 65.3571 97.2376 66.5703C95.6304 67.7817 94.3899 69.6355 93.5161 72.1318C92.6618 74.605 92.4103 77.85 92.7617 81.8666C93.1187 85.947 93.9211 89.1212 95.1688 91.3891C96.4166 93.6569 97.9139 95.2284 99.6608 96.1035C101.406 96.9573 103.213 97.3024 105.084 97.1388C106.996 96.9715 108.584 96.5114 109.845 95.7585C111.105 94.9844 112.055 94.0876 112.694 93.068C113.354 92.0466 113.76 91.0581 113.912 90.1026L113.644 87.0423L104.336 87.8567L103.711 80.7159L121.786 79.1346L123.85 102.724L118.654 103.179L117.307 98.061C117.142 98.6322 116.635 99.4368 115.783 100.475C114.951 101.49 113.665 102.459 111.926 103.382C110.186 104.305 107.861 104.894 104.949 105.149ZM143.847 101.617C141.446 101.828 139.436 101.618 137.817 100.989C136.197 100.338 134.883 99.3929 133.875 98.1533C132.867 96.9138 132.112 95.5022 131.609 93.9187C131.107 92.3351 130.783 90.7145 130.638 89.0568L128.811 68.1766L138.693 67.312L140.292 85.5782C140.416 87.0021 140.69 88.2952 141.113 89.4574C141.536 90.6197 142.204 91.5249 143.117 92.1731C144.03 92.8213 145.295 93.0747 146.91 92.9334C148.44 92.7995 149.708 92.2389 150.714 91.2515C151.741 90.2622 152.482 89.0624 152.936 87.6521C153.389 86.2205 153.552 84.7715 153.423 83.3051L151.923 66.1546L161.805 65.29L164.767 99.1447L154.885 100.009L154.455 95.1C153.414 96.9043 151.991 98.3886 150.187 99.553C148.404 100.715 146.291 101.404 143.847 101.617ZM173.232 58.7332C171.702 58.867 170.327 58.5804 169.109 57.8732C167.912 57.1642 167.249 56.0765 167.121 54.6101C166.991 53.1224 167.454 51.9255 168.509 51.0194C169.586 50.1114 170.89 49.5905 172.42 49.4566C173.95 49.3227 175.324 49.6094 176.543 50.3166C177.761 51.0237 178.435 52.1212 178.565 53.6088C178.696 55.0965 178.222 56.2943 177.145 57.2023C176.066 58.089 174.762 58.5993 173.232 58.7332ZM171.799 98.5295L168.837 64.6748L178.623 63.8186L181.585 97.6733L171.799 98.5295ZM203.088 96.5629C200.262 96.8102 197.6 96.3686 195.103 95.2379C192.603 94.086 190.515 92.245 188.837 89.7149C187.16 87.1849 186.151 83.9752 185.811 80.0861C185.485 76.367 185.942 73.1469 187.182 70.4258C188.443 67.7029 190.205 65.5679 192.468 64.0208C194.75 62.4505 197.262 61.5455 200.004 61.3056C202.023 61.129 203.96 61.3664 205.816 62.0178C207.691 62.6461 209.361 63.6136 210.824 64.9203L209.086 45.0602L219.001 44.1928L223.36 94.0185L213.446 94.8859L213.1 90.933C211.909 92.4934 210.447 93.7777 208.715 94.7858C207.004 95.7921 205.129 96.3844 203.088 96.5629ZM204.857 87.7674C206.217 87.6484 207.464 87.218 208.598 86.4763C209.752 85.7115 210.649 84.7015 211.288 83.4464C211.949 82.1893 212.209 80.7532 212.068 79.138L211.825 76.3646C211.686 74.7707 211.183 73.4334 210.318 72.3527C209.452 71.272 208.387 70.4765 207.122 69.9662C205.855 69.4346 204.562 69.2265 203.245 69.3418C201.077 69.5314 199.25 70.4301 197.763 72.0378C196.295 73.6224 195.701 76.0086 195.98 79.1964C196.259 82.3842 197.261 84.6629 198.987 86.0323C200.732 87.3787 202.689 87.957 204.857 87.7674ZM264.835 79.6289C264.832 81.5565 264.186 83.4655 262.895 85.3558C261.623 87.2231 259.729 88.8236 257.212 90.1574C254.716 91.4894 251.629 92.3162 247.953 92.6378C244.212 92.9651 240.885 92.5067 237.971 91.2626C235.055 89.9972 232.716 88.1139 230.956 85.6125C229.193 83.0898 228.16 80.0965 227.857 76.6324C227.55 73.1258 228.057 69.987 229.378 67.216C230.718 64.4219 232.716 62.1698 235.372 60.4598C238.047 58.7268 241.223 57.6994 244.9 57.3777C248.661 57.0486 251.979 57.5186 254.853 58.7877C257.724 60.0355 260.022 61.9438 261.746 64.5127C263.468 67.0603 264.485 70.1193 264.797 73.6896C264.894 74.7947 264.928 75.6698 264.898 76.3148L238.121 78.6575C238.768 80.9137 239.891 82.6143 241.49 83.7593C243.087 84.883 245.161 85.3333 247.712 85.1102C250.368 84.8778 252.244 84.2854 253.338 83.3331C254.452 82.3576 255.033 81.4074 255.08 80.4824L264.835 79.6289ZM245.674 64.7623C243.4 64.9613 241.57 65.6996 240.183 66.9774C238.817 68.2533 237.971 69.9656 237.645 72.1141L254.349 70.6527C254.053 68.9868 253.187 67.5314 251.75 66.2866C250.335 65.0398 248.31 64.5318 245.674 64.7623Z" fill="black"/>
<path d="M32.1682 16.6H44.7682V52H37.7122V21.736L30.9442 52H21.2002L14.3122 21.688V52H7.23219V16.6H19.8322L25.9762 46.96L32.1682 16.6ZM53.0238 63.016C52.2238 63.016 51.5038 62.984 50.8638 62.92C50.2398 62.856 49.8478 62.8 49.6878 62.752V57.112C49.8958 57.208 50.2558 57.28 50.7678 57.328C51.2958 57.392 51.8558 57.424 52.4478 57.424C53.6318 57.424 54.6318 57.08 55.4478 56.392C56.2798 55.704 56.8878 54.784 57.2718 53.632L57.7038 52.336L48.9198 26.512H56.6718L61.7598 45.76L66.6798 26.512H74.3358L65.5758 53.272C64.9198 55.288 64.1118 57.024 63.1518 58.48C62.1918 59.952 60.9118 61.072 59.3118 61.84C57.7118 62.624 55.6158 63.016 53.0238 63.016ZM106.857 39.064C106.857 40.6 106.569 42.16 105.993 43.744C105.417 45.328 104.537 46.792 103.353 48.136C102.169 49.464 100.673 50.536 98.8649 51.352C97.0569 52.168 94.9289 52.576 92.4809 52.576C89.2009 52.576 86.4009 51.8 84.0809 50.248C81.7609 48.68 79.9849 46.528 78.7529 43.792C77.5369 41.04 76.9289 37.872 76.9289 34.288C76.9289 30.72 77.5369 27.568 78.7529 24.832C79.9849 22.08 81.7609 19.936 84.0809 18.4C86.4009 16.848 89.2009 16.072 92.4809 16.072C95.2009 16.072 97.5209 16.568 99.4409 17.56C101.377 18.552 102.921 19.84 104.073 21.424C105.241 23.008 106.041 24.68 106.473 26.44C106.729 27.512 106.857 28.544 106.857 29.536H99.3929C99.3929 29.056 99.3529 28.592 99.2729 28.144C99.0329 26.4 98.3289 24.952 97.1609 23.8C95.9929 22.632 94.4329 22.048 92.4809 22.048C90.1769 22.048 88.2729 23.048 86.7689 25.048C85.2649 27.032 84.5129 30.112 84.5129 34.288C84.5129 38.48 85.2649 41.584 86.7689 43.6C88.2729 45.6 90.1769 46.6 92.4809 46.6C93.9529 46.6 95.2009 46.248 96.2249 45.544C97.2489 44.84 98.0329 43.92 98.5769 42.784C99.1209 41.632 99.3929 40.392 99.3929 39.064H106.857ZM120.349 52.528C117.549 52.528 115.253 51.872 113.461 50.56C111.669 49.248 110.773 47.392 110.773 44.992C110.773 43.184 111.269 41.712 112.261 40.576C113.253 39.44 114.565 38.576 116.197 37.984C117.845 37.376 119.629 36.976 121.549 36.784C124.333 36.528 126.261 36.288 127.333 36.064C128.405 35.824 128.941 35.424 128.941 34.864V34.816C128.941 33.872 128.485 33.128 127.573 32.584C126.677 32.04 125.421 31.768 123.805 31.768C120.285 31.768 118.525 33.016 118.525 35.512H111.205C111.205 33.48 111.757 31.76 112.861 30.352C113.981 28.928 115.493 27.856 117.397 27.136C119.301 26.4 121.453 26.032 123.853 26.032C126.093 26.032 128.165 26.376 130.069 27.064C131.973 27.736 133.501 28.76 134.653 30.136C135.821 31.496 136.405 33.216 136.405 35.296V46.312C136.405 46.968 136.421 47.6 136.453 48.208C136.501 48.816 136.597 49.36 136.741 49.84C136.901 50.4 137.101 50.864 137.341 51.232C137.581 51.6 137.781 51.856 137.941 52H130.621C130.509 51.872 130.333 51.64 130.093 51.304C129.869 50.952 129.677 50.544 129.517 50.08C129.421 49.808 129.341 49.544 129.277 49.288C128.317 50.312 127.053 51.112 125.485 51.688C123.917 52.248 122.205 52.528 120.349 52.528ZM122.341 46.96C123.493 46.96 124.581 46.752 125.605 46.336C126.629 45.904 127.461 45.232 128.101 44.32C128.741 43.408 129.061 42.216 129.061 40.744V40.528C128.149 40.768 127.181 40.968 126.157 41.128C125.133 41.272 124.117 41.4 123.109 41.512C121.477 41.672 120.253 41.952 119.437 42.352C118.637 42.736 118.237 43.392 118.237 44.32C118.237 46.08 119.605 46.96 122.341 46.96ZM141.849 52V26.512H149.289V29.896C150.121 28.696 151.185 27.752 152.481 27.064C153.777 26.376 155.257 26.032 156.921 26.032C159.049 26.032 160.705 26.496 161.889 27.424C163.089 28.336 163.945 29.528 164.457 31C165.225 29.48 166.313 28.272 167.721 27.376C169.129 26.48 170.801 26.032 172.737 26.032C174.817 26.032 176.457 26.472 177.657 27.352C178.873 28.216 179.737 29.384 180.249 30.856C180.777 32.328 181.041 33.968 181.041 35.776V52H173.601V37.888C173.601 36.96 173.521 36.08 173.361 35.248C173.201 34.4 172.849 33.712 172.305 33.184C171.761 32.656 170.905 32.392 169.737 32.392C168.633 32.392 167.745 32.688 167.073 33.28C166.401 33.872 165.913 34.648 165.609 35.608C165.305 36.568 165.153 37.592 165.153 38.68V52H157.761V37.936C157.761 37.072 157.689 36.216 157.545 35.368C157.401 34.52 157.057 33.816 156.513 33.256C155.969 32.68 155.113 32.392 153.945 32.392C152.841 32.392 151.945 32.696 151.257 33.304C150.585 33.896 150.089 34.68 149.769 35.656C149.449 36.632 149.289 37.688 149.289 38.824V52H141.849ZM186.615 62.488V26.512H194.079V29.44C195.087 28.384 196.263 27.552 197.607 26.944C198.967 26.336 200.415 26.032 201.951 26.032C203.999 26.032 205.919 26.544 207.711 27.568C209.519 28.576 210.975 30.056 212.079 32.008C213.199 33.96 213.759 36.336 213.759 39.136C213.759 42.064 213.215 44.528 212.127 46.528C211.039 48.512 209.599 50.016 207.807 51.04C206.015 52.064 204.063 52.576 201.951 52.576C200.415 52.576 198.967 52.256 197.607 51.616C196.263 50.976 195.087 50.104 194.079 49V62.488H186.615ZM194.079 40.24C194.079 41.424 194.367 42.464 194.943 43.36C195.519 44.24 196.255 44.92 197.151 45.4C198.063 45.88 199.023 46.12 200.031 46.12C201.663 46.12 203.079 45.56 204.279 44.44C205.495 43.304 206.103 41.536 206.103 39.136C206.103 36.736 205.503 34.992 204.303 33.904C203.103 32.8 201.679 32.248 200.031 32.248C199.039 32.248 198.087 32.488 197.175 32.968C196.263 33.432 195.519 34.096 194.943 34.96C194.367 35.824 194.079 36.856 194.079 38.056V39.952V40.24ZM227.444 52.48C225.636 52.48 224.148 52.192 222.98 51.616C221.812 51.024 220.892 50.232 220.22 49.24C219.548 48.248 219.076 47.144 218.804 45.928C218.532 44.712 218.396 43.48 218.396 42.232V26.512H225.836V40.264C225.836 41.336 225.956 42.32 226.196 43.216C226.436 44.112 226.876 44.832 227.516 45.376C228.156 45.92 229.084 46.192 230.3 46.192C231.452 46.192 232.436 45.856 233.252 45.184C234.084 44.512 234.716 43.664 235.148 42.64C235.58 41.6 235.796 40.528 235.796 39.424V26.512H243.236V52H235.796V48.304C234.9 49.584 233.74 50.6 232.316 51.352C230.908 52.104 229.284 52.48 227.444 52.48ZM259.426 52.576C257.41 52.576 255.498 52.272 253.69 51.664C251.898 51.04 250.442 50.12 249.322 48.904C248.202 47.672 247.642 46.136 247.642 44.296V43.864H255.034V44.2C255.034 45.128 255.442 45.808 256.258 46.24C257.074 46.672 258.194 46.888 259.618 46.888C260.706 46.888 261.722 46.712 262.666 46.36C263.61 46.008 264.082 45.424 264.082 44.608C264.082 43.76 263.61 43.16 262.666 42.808C261.738 42.456 260.242 42.104 258.178 41.752C256.994 41.56 255.802 41.288 254.602 40.936C253.418 40.584 252.322 40.12 251.314 39.544C250.306 38.952 249.498 38.208 248.89 37.312C248.282 36.4 247.978 35.296 247.978 34C247.978 32.272 248.498 30.816 249.538 29.632C250.594 28.448 251.994 27.552 253.738 26.944C255.482 26.336 257.402 26.032 259.498 26.032C261.482 26.032 263.338 26.368 265.066 27.04C266.81 27.696 268.218 28.648 269.29 29.896C270.362 31.128 270.898 32.616 270.898 34.36V34.696H263.578V34.408C263.578 33.448 263.138 32.752 262.258 32.32C261.394 31.872 260.466 31.648 259.474 31.648C258.866 31.648 258.234 31.72 257.578 31.864C256.938 31.992 256.394 32.216 255.946 32.536C255.498 32.84 255.274 33.272 255.274 33.832C255.274 34.648 255.802 35.248 256.858 35.632C257.93 36.016 259.314 36.344 261.01 36.616C262.082 36.792 263.21 37.04 264.394 37.36C265.594 37.664 266.714 38.104 267.754 38.68C268.794 39.24 269.642 39.984 270.298 40.912C270.954 41.84 271.282 43 271.282 44.392C271.282 45.848 270.946 47.096 270.274 48.136C269.602 49.176 268.69 50.024 267.538 50.68C266.402 51.32 265.13 51.792 263.722 52.096C262.314 52.416 260.882 52.576 259.426 52.576Z" fill="#33658A"/>
<path d="M203.298 95.1707C200.472 95.418 197.81 94.9763 195.312 93.8457C192.813 92.6938 190.725 90.8528 189.047 88.3227C187.37 85.7926 186.361 82.583 186.021 78.6939C185.695 74.9747 186.152 71.7547 187.392 69.0336C188.653 66.3107 190.415 64.1757 192.678 62.6285C194.96 61.0583 197.472 60.1532 200.214 59.9134C202.233 59.7368 204.17 59.9741 206.026 60.6255C207.901 61.2538 209.57 62.2213 211.034 63.5281L209.296 43.668L219.21 42.8006L223.57 92.6263L213.656 93.4936L213.31 89.5407C212.119 91.1012 210.657 92.3854 208.925 93.3936C207.214 94.3998 205.339 94.9922 203.298 95.1707ZM205.066 86.3751C206.427 86.2561 207.674 85.8258 208.808 85.0841C209.962 84.3193 210.859 83.3093 211.498 82.0541C212.159 80.7971 212.419 79.361 212.278 77.7458L212.035 74.9724C211.896 73.3785 211.393 72.0412 210.528 70.9605C209.662 69.8798 208.597 69.0843 207.332 68.574C206.064 68.0424 204.772 67.8342 203.454 67.9495C201.287 68.1392 199.459 69.0379 197.973 70.6456C196.505 72.2302 195.911 74.6164 196.19 77.8042C196.469 80.992 197.471 83.2706 199.197 84.6401C200.942 85.9864 202.899 86.5648 205.066 86.3751Z" fill="black"/>
</svg>
